<?xml version="1.0" standalone="no"?><!DOCTYPE svg PUBLIC "-//W3C//DTD SVG 1.1//EN" "http://www.w3.org/Graphics/SVG/1.1/DTD/svg11.dtd"><svg t="1492069408877" class="icon" style="" viewBox="0 0 1024 1024" version="1.1" xmlns="http://www.w3.org/2000/svg" p-id="3841" xmlns:xlink="http://www.w3.org/1999/xlink" width="42" height="42"><defs><style type="text/css"></style></defs><path d="M659.968 651.776c0-79.872-64.512-144.896-143.872-144.896s-143.872 65.024-143.872 144.896 64.512 144.896 143.872 144.896 143.872-65.024 143.872-144.896z m-239.616 0c0-53.248 43.008-96.256 95.744-96.256s95.744 43.008 95.744 96.256-43.008 96.256-95.744 96.256-95.744-43.008-95.744-96.256z m71.68 216.576h48.128v-75.776h-48.128v75.776z m-239.616 96.768c-66.048 0-119.808-54.272-119.808-120.832v-313.344c0-66.048 53.76-120.832 119.808-120.832h526.848c66.048 0 119.808 54.272 119.808 120.832v313.344c0 66.048-53.76 120.832-119.808 120.832h-526.848z m43.52-669.184c0-122.368 101.888-217.088 228.352-217.088v-48.128h-2.56v48.128c124.416 0 219.136 92.672 219.136 217.088v68.608h46.592v-68.608c0-151.552-115.712-265.216-265.728-265.216v48.128h2.56v-48.128c-151.04 0-274.944 115.2-274.944 265.216v69.632h46.592v-69.632zM947.2 844.288v-313.344c0-92.672-75.264-168.96-167.424-168.96h-526.848c-92.16 0-167.424 75.776-167.424 168.96v313.344c0 92.672 75.264 168.96 167.424 168.96h526.848c92.16-0.512 167.424-76.288 167.424-168.96z" fill="#888888" p-id="3842"></path></svg>