<?xml version="1.0" standalone="no"?><!DOCTYPE svg PUBLIC "-//W3C//DTD SVG 1.1//EN" "http://www.w3.org/Graphics/SVG/1.1/DTD/svg11.dtd"><svg t="1495766409774" class="icon" style="" viewBox="0 0 1024 1024" version="1.1" xmlns="http://www.w3.org/2000/svg" p-id="2562" xmlns:xlink="http://www.w3.org/1999/xlink" width="42" height="42"><defs><style type="text/css"></style></defs><path d="M592.82 328.144L271.925 431.74c-21.448-152.446 10.972-275.589 80.73-298.084 61.723-19.875 164.23 42.179 240.165 194.487z m131.591 537.282l0.165 90.117 52.02-0.082-0.166-90.144-52.019 0.11z m-533.286 80.276c63.167-82.733 124.66-108.035 263.652-108.035H682.44c193.191 0 261.889-140.482 264.715-146.465 8.463-17.89 0.855-39.146-16.968-47.718-17.807-8.601-39.284-1.076-48.008 16.677-2.122 4.3-53.494 105.472-199.738 105.472H454.777c-140.757 0-233.603 21.75-320.935 136.457-12.048 15.797-8.308 37.542 6.822 50.448 9.99 8.523 35.35 12.957 50.461-6.836z m42.316-501.529l-160.055 51.66c8.187-126.698 74.79-244.05 181.144-315.393-29.056 63.596-37.353 156.25-21.089 263.733z m88.367-340.702c5.954-3.114 12.116-5.817 18.567-7.884 6.395-2.067 12.887-3.528 19.462-4.52l-3.984-12.075c-3.445-10.503-14.775-16.21-25.25-12.736-10.504 3.447-16.197 14.749-12.736 25.252l3.94 11.963z m309.426 212.267l170.103-54.914c-83.21-101.088-211.15-157.601-343.61-149.137 63.046 33.963 125.513 105.83 173.507 204.051zM110.366 566.546L439.41 460.328l91.303 277.021h42.122L477.48 448.033l336.223-108.587c10.516-3.39 16.278-14.693 12.888-25.196-3.377-10.503-14.598-16.293-25.183-12.874l-702.08 226.74c-10.517 3.39-16.279 14.664-12.888 25.168 0 0 6.089 17.726 23.926 13.262zM621.723 949.59c10.562-3.264 16.195-14.776 12.738-25.252l-19.175-58.194h-42.12l23.306 70.71c6.175 16.405 23.315 13.335 25.251 12.736z" p-id="2563" fill="#29A1F7"></path></svg>