<?xml version="1.0" standalone="no"?><!DOCTYPE svg PUBLIC "-//W3C//DTD SVG 1.1//EN" "http://www.w3.org/Graphics/SVG/1.1/DTD/svg11.dtd"><svg t="1493101780943" class="icon" style="" viewBox="0 0 1024 1024" version="1.1" xmlns="http://www.w3.org/2000/svg" p-id="13460" xmlns:xlink="http://www.w3.org/1999/xlink" width="32" height="32"><defs><style type="text/css"></style></defs><path d="M247.466667 345.6a42.666667 38.4 90 1 0 76.8 0 42.666667 38.4 90 1 0-76.8 0Z" fill="#61C351" p-id="13461"></path><path d="M460.8 345.6a42.666667 38.4 90 1 0 76.8 0 42.666667 38.4 90 1 0-76.8 0Z" fill="#61C351" p-id="13462"></path><path d="M938.666667 631.466667c0-115.2-106.666667-209.066667-243.2-217.6C682.666667 277.333333 550.4 170.666667 392.533333 170.666667 221.866667 170.666667 85.333333 290.133333 85.333333 439.466667c0 89.6 46.933333 166.4 123.733334 217.6 8.533333 4.266667-29.866667 81.066667-17.066667 89.6 17.066667 8.533333 76.8-59.733333 93.866667-51.2 34.133333 12.8 68.266667 17.066667 106.666666 17.066666 17.066667 0 38.4 0 55.466667-4.266666 34.133333 81.066667 128 140.8 238.933333 140.8 29.866667 0 59.733333-4.266667 85.333334-12.8 8.533333-4.266667 68.266667 51.2 76.8 46.933333 12.8-4.266667-25.6-68.266667-12.8-76.8C896 768 938.666667 704 938.666667 631.466667z m-345.6-55.466667c-12.8 0-25.6-12.8-25.6-25.6s12.8-25.6 25.6-25.6 25.6 12.8 25.6 25.6-12.8 25.6-25.6 25.6z m-162.133334 55.466667v25.6c-12.8 0-25.6 4.266667-42.666666 4.266666-34.133333 0-68.266667-4.266667-98.133334-17.066666-4.266667 0-12.8-4.266667-21.333333 0-12.8 8.533333-29.866667 29.866667-29.866667 29.866666s8.533333-17.066667 8.533334-38.4c0-8.533333-12.8-17.066667-17.066667-21.333333-59.733333-38.4-93.866667-106.666667-93.866667-174.933333 0-119.466667 115.2-217.6 251.733334-217.6 132.266667 0 238.933333 85.333333 251.733333 192-115.2 21.333333-209.066667 110.933333-209.066667 217.6z m320-55.466667c-12.8 0-25.6-12.8-25.6-25.6s12.8-25.6 25.6-25.6 25.6 12.8 25.6 25.6-8.533333 25.6-25.6 25.6z" fill="#61C351" p-id="13463"></path></svg>