<svg t="1490674065047" class="icon" style="" viewBox="0 0 1024 1024" version="1.1" xmlns="http://www.w3.org/2000/svg" p-id="5933" xmlns:xlink="http://www.w3.org/1999/xlink" width="42" height="42"><path d="M869.508393 230.05356 749.292428 90.611717c-16.160051-16.160051-60.022025-26.083052-84.764546-26.083052L199.484334 64.528666c-39.644929 0-71.711252 31.725562-71.711252 71.009264l0 752.296855c0 39.199791 32.066323 70.987774 71.711252 70.987774l623.074771 0c39.603996 0 71.711252-31.789007 71.711252-70.987774l0-597.631286C894.249891 266.421862 884.752586 245.342778 869.508393 230.05356L869.508393 230.05356zM851.665003 887.835807c0 15.671934-13.072737 28.40391-29.127388 28.40391L199.484334 916.239717c-16.053628 0-29.127388-12.753465-29.127388-28.40391L170.356946 135.537929c0-15.671934 13.072737-28.4254 29.127388-28.4254l465.043548 0c18.48091 0 46.714951 7.772011 54.18918 13.244652l118.534673 137.483234 0.99977 1.170662 1.086751 1.086751c7.940856 7.963369 12.30628 18.630313 12.30628 30.064736l0 597.672218L851.665003 887.834784 851.665003 887.835807z" p-id="5934" fill="#29A1F7"></path><path d="M276.859585 682.109306 702.704366 682.109306 702.704366 724.694193 276.859585 724.694193 276.859585 682.109306Z" p-id="5935" fill="#29A1F7"></path><path d="M276.859585 533.063735 745.288231 533.063735 745.288231 575.648622 276.859585 575.648622 276.859585 533.063735Z" p-id="5936" fill="#29A1F7"></path><path d="M276.859585 384.018164 574.950727 384.018164 574.950727 426.603051 276.859585 426.603051 276.859585 384.018164Z" p-id="5937" fill="#29A1F7"></path></svg>