<svg t="1490673098496" class="icon" style="" viewBox="0 0 1024 1024" version="1.1" xmlns="http://www.w3.org/2000/svg" p-id="1564" width="42" height="42"><path d="M924.561243 512.708128c-10.025331 0-18.159592-8.131191-18.159592-18.172895 0-217.47508-176.940898-394.374022-394.415978-394.374022-217.461777 0-394.388349 176.898943-394.388349 394.374022 0 10.042727-8.131191 18.172895-18.159592 18.172895s-18.159592-8.131191-18.159592-18.172895c0-237.504252 193.216583-430.720835 430.706509-430.720835 237.504252 0 430.735162 193.216583 430.735162 430.720835C942.720835 504.576937 934.589644 512.708128 924.561243 512.708128z" p-id="1565" fill="#29A1F7"></path><path d="M211.967646 771.414261l-52.499701 0c-43.113937 0-78.18878-35.092239-78.18878-78.203106L81.279165 505.694387c0-43.110867 35.074843-78.203106 78.18878-78.203106l52.499701 0c43.100634 0 78.164221 35.092239 78.164221 78.203106L290.131867 693.211155C290.131867 736.322022 255.06828 771.414261 211.967646 771.414261zM159.467945 463.838094c-23.085788 0-41.87062 18.773576-41.87062 41.856293L117.597325 693.211155c0 23.082718 18.784832 41.856293 41.87062 41.856293l52.499701 0c23.071462 0 41.845037-18.773576 41.845037-41.856293L253.812683 505.694387c0-23.082718-18.773576-41.856293-41.845037-41.856293L159.467945 463.838094z" p-id="1566" fill="#29A1F7"></path><path d="M864.559685 771.414261l-52.52733 0c-43.128263 0-78.217433-35.092239-78.217433-78.203106L733.814921 505.694387c0-43.110867 35.08917-78.203106 78.217433-78.203106l52.52733 0c43.09961 0 78.161151 35.092239 78.161151 78.203106L942.720835 693.211155C942.720835 736.322022 907.659295 771.414261 864.559685 771.414261zM812.031331 463.838094c-23.099091 0-41.898249 18.773576-41.898249 41.856293L770.133082 693.211155c0 23.082718 18.799158 41.856293 41.898249 41.856293l52.52733 0c23.071462 0 41.84299-18.773576 41.84299-41.856293L906.401652 505.694387c0-23.082718-18.771529-41.856293-41.84299-41.856293L812.031331 463.838094z" p-id="1567" fill="#29A1F7"></path><path d="M615.498212 903.483182c-5.906523 0-11.704576-2.894933-15.19712-8.215102-5.499248-8.376785-3.166109-19.645432 5.225001-25.159006l201.322192-132.065851c8.334829-5.431709 19.617803-3.166109 25.14468 5.239328 5.496178 8.376785 3.163039 19.645432-5.228071 25.159006L625.445772 900.507408C622.37483 902.499785 618.924241 903.483182 615.498212 903.483182z" p-id="1568" fill="#29A1F7"></path><path d="M570.462506 960.185602l-90.019223 0c-34.83232 0-63.153342-28.352745-63.153342-63.170738L417.289941 891.231137c0-34.817993 28.322046-63.170738 63.153342-63.170738l90.019223 0c34.845623 0 63.181995 28.352745 63.181995 63.170738l0 5.783727C633.643478 931.832857 605.308129 960.185602 570.462506 960.185602zM480.44226 864.407212c-14.803147 0-26.835182 12.034081-26.835182 26.823925l0 5.783727c0 14.789844 12.032034 26.823925 26.835182 26.823925l90.019223 0c14.817474 0 26.862811-12.034081 26.862811-26.823925L597.324294 891.231137c0-14.789844-12.045337-26.823925-26.862811-26.823925L480.44226 864.407212z" p-id="1569" fill="#29A1F7"></path></svg>