<?xml version="1.0" standalone="no"?><!DOCTYPE svg PUBLIC "-//W3C//DTD SVG 1.1//EN" "http://www.w3.org/Graphics/SVG/1.1/DTD/svg11.dtd"><svg t="1514186763291" class="icon" style="" viewBox="0 0 1024 1024" version="1.1" xmlns="http://www.w3.org/2000/svg" p-id="3666" xmlns:xlink="http://www.w3.org/1999/xlink" width="32" height="32"><defs><style type="text/css"></style></defs><path d="M693.248 347.21792c11.63264 0 23.26528 0.86016 34.93888 2.048C696.85248 203.12064 540.672 94.74048 362.496 94.74048 163.34848 94.74048 0 230.4 0 403.00544c0 99.57376 54.19008 181.4528 144.91648 244.89984l-36.12672 109.1584 126.85312-63.81568c45.34272 8.84736 81.87904 18.0224 126.85312 18.0224 11.22304 0 22.48704-0.36864 33.71008-1.59744-7.24992-24.08448-11.22304-49.7664-11.22304-75.85792C384.94208 475.66848 521.05216 347.21792 693.248 347.21792L693.248 347.21792zM498.15552 248.87296c27.27936 0 45.34272 18.06336 45.34272 45.34272s-18.06336 45.34272-45.34272 45.34272c-27.32032 0-54.59968-18.06336-54.59968-45.34272C443.96544 266.97728 471.2448 248.87296 498.15552 248.87296L498.15552 248.87296zM244.49024 339.59936c-27.32032 0-54.59968-18.06336-54.59968-45.34272s27.27936-45.34272 54.59968-45.34272c27.27936 0 45.30176 18.06336 45.30176 45.34272C289.792 321.1264 271.7696 339.59936 244.49024 339.59936L244.49024 339.59936zM1024 629.80096c0-144.87552-144.91648-262.92224-307.89632-262.92224-172.60544 0-308.26496 118.04672-308.26496 262.92224 0 145.32608 135.70048 262.9632 308.26496 262.9632 36.12672 0 72.62208-9.25696 108.7488-18.06336l99.57376 54.59968-27.27936-90.7264C969.80992 783.9744 1024 711.2704 1024 629.80096L1024 629.80096zM616.16128 584.45824c-18.0224 0-36.12672-18.0224-36.12672-36.12672 0-18.0224 18.06336-36.12672 36.12672-36.12672 27.32032 0 45.34272 18.06336 45.34272 36.12672C661.504 566.39488 643.4816 584.45824 616.16128 584.45824L616.16128 584.45824zM815.67744 584.45824c-18.06336 0-36.12672-18.0224-36.12672-36.12672 0-18.0224 18.0224-36.12672 36.12672-36.12672 27.27936 0 45.34272 18.06336 45.34272 36.12672C861.02016 566.39488 842.5472 584.45824 815.67744 584.45824L815.67744 584.45824zM815.67744 584.45824" fill="#00C700" p-id="3667"></path></svg>